<svg xmlns="http://www.w3.org/2000/svg" viewBox="0 0 512 512">
  <rect width="512" height="512" rx="96" fill="#ff6b2c"/>
  <!-- Server rack shape -->
  <rect x="120" y="96" width="272" height="320" rx="16" fill="none" stroke="white" stroke-width="16"/>
  <!-- Rack units -->
  <rect x="140" y="120" width="232" height="52" rx="8" fill="white" opacity="0.85"/>
  <rect x="140" y="188" width="232" height="52" rx="8" fill="white" opacity="0.7"/>
  <rect x="140" y="256" width="232" height="52" rx="8" fill="white" opacity="0.55"/>
  <rect x="140" y="324" width="232" height="52" rx="8" fill="white" opacity="0.4"/>
  <!-- LED dots -->
  <circle cx="332" cy="146" r="8" fill="#4ade80"/>
  <circle cx="332" cy="214" r="8" fill="#4ade80"/>
  <circle cx="332" cy="282" r="8" fill="#fbbf24"/>
  <circle cx="332" cy="350" r="8" fill="#f87171"/>
  <!-- Drive slots -->
  <rect x="160" y="136" width="120" height="8" rx="4" fill="#ff6b2c" opacity="0.5"/>
  <rect x="160" y="152" width="80" height="8" rx="4" fill="#ff6b2c" opacity="0.35"/>
  <rect x="160" y="204" width="120" height="8" rx="4" fill="#ff6b2c" opacity="0.5"/>
  <rect x="160" y="220" width="80" height="8" rx="4" fill="#ff6b2c" opacity="0.35"/>
</svg>
